<?xml version="1.0" standalone="no"?>
<!DOCTYPE svg PUBLIC "-//W3C//DTD SVG 20010904//EN"
 "http://www.w3.org/TR/2001/REC-SVG-20010904/DTD/svg10.dtd">
<svg version="1.0" xmlns="http://www.w3.org/2000/svg"
 width="700.000000pt" height="700.000000pt" viewBox="0 0 700.000000 700.000000"
 preserveAspectRatio="xMidYMid meet">
<metadata>
Created by potrace 1.14, written by Peter Selinger 2001-2017
</metadata>
<g transform="translate(0.000000,700.000000) scale(0.100000,-0.100000)"
fill="#000000" stroke="none">
<path d="M3278 6996 c-1 -2 -42 -6 -89 -10 -47 -4 -95 -8 -105 -10 -10 -2 -46
-7 -79 -12 -33 -4 -62 -8 -65 -9 -3 0 -27 -4 -55 -9 -185 -29 -558 -137 -712
-207 -24 -10 -46 -19 -50 -19 -4 0 -63 -27 -132 -61 -908 -442 -1566 -1213
-1847 -2169 -25 -83 -50 -180 -60 -230 -3 -14 -11 -56 -19 -95 -7 -38 -19
-106 -25 -150 -6 -44 -13 -93 -15 -110 -20 -140 -26 -521 -12 -699 14 -164 43
-348 83 -516 121 -507 363 -999 686 -1393 27 -32 48 -62 48 -68 0 -5 -19 -45
-41 -87 -161 -299 -334 -485 -572 -617 -80 -44 -130 -103 -147 -175 -22 -93 2
-180 69 -248 71 -71 166 -91 430 -90 174 1 285 14 448 54 234 56 484 166 680
299 l106 72 136 -67 c158 -79 267 -125 425 -179 100 -35 313 -96 371 -107 11
-2 31 -6 45 -9 253 -53 431 -70 725 -70 274 0 344 6 605 51 539 92 1077 329
1525 673 33 25 65 51 71 56 7 6 39 33 72 60 74 62 309 297 383 385 293 345
520 747 660 1173 27 81 51 155 52 165 2 9 9 35 15 58 15 52 59 265 67 324 3
25 8 52 10 60 2 8 7 47 10 85 4 39 10 106 14 150 8 82 5 497 -3 570 -3 22 -8
65 -11 95 -7 60 -13 101 -20 140 -3 14 -7 41 -10 60 -27 176 -122 521 -180
655 -7 17 -32 75 -55 130 -124 297 -349 652 -581 914 -255 290 -517 507 -854
709 -96 57 -405 212 -423 212 -4 0 -26 8 -48 19 -138 66 -529 174 -749 207
-27 4 -57 9 -65 10 -8 2 -42 6 -76 9 -33 4 -74 9 -90 11 -33 5 -540 14 -546
10z m542 -269 c14 -3 52 -8 85 -12 33 -3 67 -8 75 -10 8 -2 35 -6 61 -9 103
-13 333 -70 474 -117 774 -261 1407 -781 1807 -1484 91 -159 225 -464 253
-575 1 -3 5 -12 8 -20 10 -23 67 -231 73 -265 3 -16 11 -59 19 -95 8 -36 17
-83 20 -105 21 -147 26 -188 32 -259 10 -107 10 -427 0 -546 -16 -207 -60
-439 -123 -651 -62 -209 -101 -310 -205 -519 -379 -765 -1041 -1344 -1859
-1626 -113 -38 -337 -98 -410 -109 -24 -4 -47 -8 -50 -10 -5 -3 -47 -10 -125
-21 -27 -3 -58 -8 -68 -10 -56 -10 -236 -19 -402 -18 -231 0 -323 7 -515 40
-135 23 -139 23 -260 54 -256 64 -467 146 -718 276 -90 46 -173 86 -185 88
-35 5 -78 -14 -142 -65 -173 -135 -401 -253 -610 -315 -174 -53 -287 -68 -495
-69 -107 0 -203 3 -214 8 -15 6 -4 16 60 55 212 127 384 305 541 557 66 108
163 307 163 336 0 56 -25 107 -89 184 -261 311 -453 651 -585 1033 -32 93 -72
227 -81 270 -2 9 -10 49 -19 87 -29 132 -48 257 -65 431 -9 90 -7 538 3 584 3
14 8 48 11 75 29 254 129 643 213 827 12 26 22 50 22 53 0 17 129 273 189 374
90 152 222 337 340 476 83 97 336 337 441 419 106 82 295 213 330 229 8 4 33
18 55 32 79 50 282 149 410 200 193 78 418 144 615 181 43 9 245 36 315 43 83
9 561 7 605 -2z"/>
<path d="M3208 6131 c-39 -22 -66 -57 -71 -93 -4 -35 -6 -36 -53 -44 -21 -3
-57 -10 -79 -15 -62 -13 -75 -11 -87 16 -32 71 -142 85 -201 27 -23 -23 -31
-42 -35 -80 l-4 -49 -95 -36 -94 -36 -27 30 c-36 39 -78 50 -126 34 -71 -25
-99 -73 -90 -155 3 -22 1 -40 -3 -40 -5 0 -40 -20 -78 -45 -39 -25 -74 -45
-78 -45 -4 0 -20 9 -35 20 -105 77 -239 -32 -191 -157 9 -26 7 -31 -38 -72
-26 -24 -60 -55 -75 -68 -25 -24 -28 -24 -49 -9 -44 30 -120 18 -162 -26 -40
-41 -41 -136 -3 -168 12 -10 5 -25 -47 -95 -42 -58 -67 -82 -77 -79 -71 26
-141 2 -173 -59 -24 -46 -16 -105 20 -143 l25 -28 -43 -88 -43 -88 -41 2
c-132 5 -192 -155 -87 -232 17 -13 29 -28 27 -34 -2 -6 -16 -50 -30 -97 l-25
-86 -35 -1 c-127 -5 -161 -184 -45 -239 l35 -17 -10 -99 -10 -99 -40 -14 c-22
-7 -41 -14 -42 -14 -1 0 -11 -13 -22 -29 -29 -40 -35 -92 -17 -135 15 -36 67
-76 98 -76 24 0 25 -4 33 -105 4 -49 9 -93 11 -97 3 -4 -6 -10 -19 -14 -41
-10 -79 -57 -84 -107 -9 -77 40 -138 115 -142 l36 -3 24 -83 c13 -46 26 -91
28 -100 4 -9 -4 -19 -20 -27 -56 -25 -74 -115 -36 -177 23 -37 62 -56 119 -59
39 -1 40 -1 83 -89 43 -85 44 -88 25 -105 -27 -24 -44 -62 -42 -94 7 -94 92
-151 178 -119 19 7 27 5 38 -11 26 -38 93 -123 102 -129 4 -3 -1 -22 -13 -41
-42 -71 -22 -150 47 -186 31 -17 95 -15 121 4 27 18 32 16 115 -62 54 -51 63
-64 54 -79 -71 -127 102 -255 205 -151 13 12 24 8 80 -28 36 -22 75 -47 86
-53 18 -11 20 -19 16 -60 -9 -79 47 -143 126 -143 36 0 81 23 103 54 11 16 19
14 109 -20 91 -34 96 -38 94 -63 -7 -60 43 -126 104 -136 51 -9 105 15 130 58
l21 35 72 -14 c39 -8 81 -16 92 -18 11 -3 23 -5 27 -5 3 -1 10 -16 14 -33 27
-128 192 -147 242 -30 l16 38 103 1 c88 0 103 -2 103 -16 1 -26 24 -61 56 -82
75 -49 192 4 194 88 0 26 20 38 75 47 45 7 119 24 123 28 1 2 11 -11 22 -29
39 -65 107 -85 171 -52 46 23 69 63 69 119 0 30 4 40 16 40 15 0 100 32 136
51 28 14 46 11 58 -11 22 -42 98 -59 152 -34 52 24 82 85 69 143 -5 22 -5 41
0 41 4 0 44 23 88 51 l80 51 22 -21 c46 -42 129 -39 171 7 39 41 48 79 32 132
-12 41 -12 46 4 58 9 7 42 37 72 66 l56 53 32 -17 c63 -34 139 -8 175 61 20
38 16 86 -10 130 -15 25 -13 28 43 102 56 73 61 77 89 70 46 -10 83 -7 110 11
70 46 81 141 23 203 l-20 22 43 89 44 89 46 0 c71 -1 121 40 133 107 5 30 -25
116 -41 116 -4 0 -16 6 -25 14 -16 12 -15 18 7 89 13 42 21 77 19 77 -3 0 0 9
6 20 6 11 20 20 31 20 38 0 89 29 109 62 40 66 13 155 -56 184 -19 8 -33 18
-31 22 3 4 8 48 12 97 8 100 9 105 32 105 27 0 80 39 92 69 36 86 -1 154 -101
185 -12 4 -18 16 -19 38 -2 53 -8 121 -13 144 -4 16 2 24 29 37 69 33 95 119
55 185 -21 34 -72 62 -113 62 -20 0 -25 8 -36 53 -7 28 -19 72 -27 96 -13 40
-13 45 3 57 10 7 20 14 23 14 3 0 13 13 23 29 21 36 22 92 2 130 -19 37 -87
71 -128 65 -31 -5 -33 -4 -77 84 l-46 90 28 31 c15 17 29 42 29 56 1 14 2 31
3 38 4 24 -32 82 -62 100 -32 18 -98 23 -121 8 -11 -7 -29 10 -76 72 l-62 82
19 30 c30 49 22 123 -18 163 -21 20 -77 40 -102 36 -13 -2 -35 -10 -50 -18
-27 -14 -29 -13 -97 50 -39 35 -73 64 -76 64 -4 0 1 20 9 44 15 40 14 47 -2
90 -14 36 -27 51 -57 66 -50 26 -75 25 -127 -5 l-44 -25 -81 50 -82 50 0 58
c0 67 -22 104 -73 125 -49 20 -98 10 -138 -28 l-34 -32 -91 36 -92 36 -2 43
c-5 86 -77 140 -160 118 -34 -8 -85 -53 -85 -73 0 -15 -31 -17 -80 -3 -19 5
-55 12 -80 15 -54 8 -61 12 -54 29 7 18 -17 65 -48 92 -54 50 -160 27 -192
-41 -9 -18 -16 -37 -16 -42 0 -4 -46 -7 -102 -6 l-101 2 -14 33 c-17 40 -59
78 -87 79 -12 0 -29 2 -38 4 -9 2 -32 -5 -50 -14z"/>
</g>
</svg>
